<svg width="800" height="800" viewBox="0 0 800 800" fill="none" xmlns="http://www.w3.org/2000/svg">
<rect width="800" height="800" fill="#10B981"/>
<path d="M209.564 243.413L260.564 151.913L490.564 142.413L557.064 211.413L574.564 349.413C574.564 349.413 590.265 358.343 598.064 370.413C605.863 382.483 602.564 431.913 590.064 466.913C584.117 483.565 567.638 483.741 557.064 497.913C533.388 529.646 553.322 562.397 533.064 596.413C501.853 648.82 461.989 676.951 401.064 679.913C350.612 682.366 324.7 666.101 287.064 632.413C238.376 588.833 244.378 536.501 217.564 476.913C213.064 466.913 194.469 415.411 201.564 394.913C206.064 381.913 217.064 378.913 217.064 378.913L209.564 243.413Z" fill="#FDEDE4"/>
<path fill-rule="evenodd" clip-rule="evenodd" d="M213.5 379.5C213.5 430.5 228.064 590.913 263.564 646.913C299.064 702.913 357.564 712.913 395.064 711.913C432.564 710.913 497.064 705.413 535.064 627.913C573.064 550.413 573.064 485.913 573.064 485.913L578 352.5L566.064 345.913C566.064 345.913 565.064 451.913 548.564 482.913C537.051 504.544 501.064 523.913 501.064 523.913C501.064 523.913 491.291 509.02 477.564 500.413C458.216 488.282 438.288 489.789 416.935 491.404C407.294 492.134 397.363 492.885 387.064 492.413C380.767 492.125 375.031 491.606 369.631 491.117C351.3 489.458 336.855 488.151 317.564 497.413C300.987 505.372 288.064 523.913 288.064 523.913C288.064 523.913 253.893 514.695 243.064 497.413C221.5 463 221.064 377.413 221.064 377.413L213.5 379.5ZM421.687 605.546C420.251 601.765 419.035 598.563 417.064 597.413C411.064 593.913 383.908 593.913 379.064 597.413C377.714 598.389 376.883 600.84 375.857 603.869C373.201 611.708 369.235 623.413 351.564 623.413C327.064 623.413 312.564 558.913 328.064 537.913C340.198 521.473 356.877 523.151 376.303 525.104C381.691 525.646 387.291 526.209 393.064 526.413C400.611 526.679 408.486 525.862 416.208 525.061C436.074 523 454.924 521.044 464.564 537.913C484.564 572.913 461.064 623.413 441.564 623.413C428.472 623.413 424.62 613.271 421.687 605.546Z" fill="#513F39"/>
<path d="M428.564 349.413C422.064 347.913 415.948 343.186 416.564 334.913C417.746 319.044 445.064 324.413 463.064 324.413C481.064 324.413 474.748 323.889 490.564 322.913C506.38 321.937 528.006 334.358 528.564 349.413C528.823 356.413 496.029 344.65 475.064 344.913C456.821 345.142 446.341 353.516 428.564 349.413Z" fill="#69524B"/>
<path d="M272.064 327.913C258.471 335.111 248.564 354.74 251.564 357.413C259.291 364.298 278.064 357.413 278.064 357.413C278.064 357.413 295.685 350.539 307.564 348.913C323.65 346.711 340.064 353.913 349.064 351.413C358.064 348.913 367.564 340.413 359.064 330.413C350.564 320.413 332.38 327.913 316.564 327.913C305.064 327.913 287.125 319.937 272.064 327.913Z" fill="#69524B"/>
<path d="M212.064 380.413C216.564 387.413 221.128 378.826 222.064 374.413C223 370 221.257 345.535 222.064 335.413C223.396 318.692 231.064 310.187 231.064 293.413C231.064 276.639 221.125 268.161 222.064 251.413C223.72 221.857 252.564 187.913 261.064 186.413C269.564 184.913 280.564 194.413 314.064 193.413C347.564 192.413 494.564 162.413 507.064 172.413C519.564 182.413 537.408 212.445 547.064 242.413C555.873 269.753 554.064 303.413 555.064 317.413C556.064 331.413 559.5 339.5 564.064 347.413C565.994 350.76 577.5 355.413 582.064 355.413C588.5 355.413 588.211 304.913 587.064 287.413C585.917 269.913 583.828 253.17 577.064 232.413C568.131 205.002 559.989 189.994 542.064 167.413C487.774 99.0202 407.064 76.4128 336.064 93.413C265.064 110.413 220.248 166.297 202.064 242.413C190.601 290.394 207.564 373.413 212.064 380.413Z" fill="#69524B"/>
<path fill-rule="evenodd" clip-rule="evenodd" d="M241.064 412.413C233.396 383.178 232.56 382.505 226.779 381.178C226.325 381.074 226 380.67 226 380.204V367.064C226 366.668 226.211 366.32 226.577 366.171C231.106 364.322 262.216 352.57 317.064 354.413C351.093 354.413 365.394 361.847 370.344 365.472C371.818 366.551 373.68 367.211 375.484 366.929C379.332 366.327 386.182 365.38 391.06 365.413C395.387 365.442 401.238 366.167 404.533 366.627C406.126 366.849 407.748 366.332 409.048 365.386C415.021 361.04 435.405 349.413 482.564 349.413C527.249 349.413 552.784 355.118 557.328 356.227C557.768 356.335 558.064 356.727 558.064 357.18V368.833C558.064 369.192 557.857 369.531 557.547 369.711C546.776 375.972 546.288 379.742 545.117 388.8C544.46 393.881 543.588 400.628 540.564 410.413C530.064 436.913 511.064 442.413 479.064 442.413H451.064C444 442.413 435 440.413 427.5 430.913C415.547 415.772 410.793 403.351 407.348 394.349C403.3 383.77 401.059 377.913 391.064 377.913C381.403 377.913 379.633 384.411 376.81 394.774C374.227 404.257 370.762 416.976 359.564 430.913C347.913 445.413 320.064 445.413 320.064 445.413H292.064C266.564 445.413 249.064 442.913 241.064 412.413ZM472.064 356.913C455 356.913 419.7 361.913 415.564 374.913C412.064 385.913 423.141 419.913 439.064 431.413C445.692 436.2 453.543 435.955 464.484 435.614C467.582 435.517 470.928 435.413 474.564 435.413C509.564 435.413 519.812 431.826 530.064 417.913C540.316 404 542.639 372.913 534.564 364.413C527.196 356.657 494.985 356.811 476.859 356.897C475.119 356.905 473.51 356.913 472.064 356.913ZM247.064 373.413C253.522 365.879 264.064 361.246 303.564 360.413C328.489 359.888 361.564 363.413 366.064 373.413C370.564 383.413 368.681 418.096 348.064 430.913C336 438.413 323.564 438.413 308.064 438.413C292.564 438.413 271.221 438.413 263.064 432.913C245 420.734 241.064 380.413 247.064 373.413Z" fill="black"/>
</svg>
