<svg width="800" height="800" viewBox="0 0 800 800" fill="none" xmlns="http://www.w3.org/2000/svg">
<rect width="800" height="800" fill="#10B981"/>
<path d="M209.564 243.413L260.564 151.913L490.564 142.413L557.064 211.413L574.564 349.413C574.564 349.413 590.265 358.343 598.064 370.413C605.863 382.483 602.564 431.913 590.064 466.913C584.117 483.565 567.638 483.741 557.064 497.913C533.388 529.646 553.322 562.397 533.064 596.413C501.853 648.82 461.989 676.951 401.064 679.913C350.612 682.366 324.7 666.101 287.064 632.413C238.376 588.833 244.378 536.501 217.564 476.913C213.064 466.913 194.469 415.411 201.564 394.913C206.064 381.913 220.064 380.913 220.064 380.913L209.564 243.413Z" fill="#FDEDE4"/>
<path fill-rule="evenodd" clip-rule="evenodd" d="M217.5 379.5C209 430.5 228.064 590.913 263.564 646.913C299.064 702.913 357.564 712.913 395.064 711.913C432.564 710.913 497.064 705.413 535.064 627.913C573.064 550.413 573.064 485.913 573.064 485.913L578 352.5L565.064 357.913C565.064 357.913 565.064 451.913 548.564 482.913C537.051 504.544 501.064 523.913 501.064 523.913C501.064 523.913 491.291 509.02 477.564 500.413C458.216 488.282 438.288 489.789 416.935 491.404C407.294 492.134 397.363 492.885 387.064 492.413C380.767 492.125 375.031 491.606 369.631 491.117C351.3 489.458 336.855 488.151 317.564 497.413C300.987 505.372 288.064 523.913 288.064 523.913C288.064 523.913 255.09 513.885 243.064 497.413C218.24 463.413 224.064 380.413 224.064 380.413L217.5 379.5ZM421.687 605.546C420.251 601.765 419.035 598.563 417.064 597.413C411.064 593.913 383.908 593.913 379.064 597.413C377.714 598.389 376.883 600.84 375.857 603.869C373.201 611.708 369.235 623.413 351.564 623.413C327.064 623.413 312.564 558.913 328.064 537.913C340.198 521.473 356.877 523.151 376.303 525.104C381.691 525.646 387.291 526.209 393.064 526.413C400.611 526.679 408.486 525.862 416.208 525.061C436.074 523 454.924 521.044 464.564 537.913C484.564 572.913 461.064 623.413 441.564 623.413C428.472 623.413 424.62 613.271 421.687 605.546Z" fill="#513F39"/>
<path d="M423.564 349.413C417.064 347.913 410.948 343.186 411.564 334.913C412.746 319.044 440.064 324.413 458.064 324.413C476.064 324.413 469.748 323.889 485.564 322.913C501.38 321.937 523.006 334.358 523.564 349.413C523.823 356.413 491.029 344.65 470.064 344.913C451.821 345.142 441.341 353.516 423.564 349.413Z" fill="#69524B"/>
<path d="M267.064 327.913C253.471 335.111 243.564 354.74 246.564 357.413C254.291 364.298 273.064 357.413 273.064 357.413C273.064 357.413 290.685 350.539 302.564 348.913C318.65 346.711 335.064 353.913 344.064 351.413C353.064 348.913 362.564 340.413 354.064 330.413C345.564 320.413 327.38 327.913 311.564 327.913C300.064 327.913 282.125 319.937 267.064 327.913Z" fill="#69524B"/>
<path d="M211.064 368.413C215.564 375.413 222.064 365.326 222.064 361.413C222.064 357.5 221.257 345.535 222.064 335.413C223.396 318.692 231.064 310.187 231.064 293.413C231.064 276.639 221.126 268.161 222.064 251.413C223.72 221.857 252.564 187.913 261.064 186.413C269.564 184.913 280.564 194.413 314.064 193.413C347.564 192.413 494.564 162.413 507.064 172.413C519.564 182.413 537.408 212.445 547.064 242.413C555.873 269.753 555.064 301.413 556.064 315.413C557.064 329.413 556.201 339.245 566.064 348.413C572.337 354.244 581.064 358.413 586.064 357.413C591.064 356.413 593.211 304.913 592.064 287.413C590.917 269.913 588.828 253.17 582.064 232.413C573.131 205.002 564.989 189.994 547.064 167.413C492.774 99.0202 407.064 76.4128 336.064 93.413C265.064 110.413 220.248 166.297 202.064 242.413C190.601 290.394 206.564 361.413 211.064 368.413Z" fill="#69524B"/>
<path d="M236.064 412.413C228.064 381.913 221.064 381.5 214.564 380V369.913V362.413L230.064 365.413C230.064 365.413 252.564 352.413 312.064 354.413C357.064 354.413 367.564 367.413 367.564 367.413H402.064C402.064 367.413 419.564 349.413 477.564 349.413C527.064 349.413 553.064 356.413 553.064 356.413L578.564 342.413V351.913L553.064 370.413C535.564 380.413 544.064 382.913 535.564 410.413C525.064 436.913 506.064 440.413 474.064 440.413H451.064C435.564 440.413 420.714 435.913 413.564 419.413C407.064 404.413 404.064 395.413 404.064 395.413C404.064 395.413 399.564 377.913 387.064 377.913C374.564 377.913 369.564 395.413 369.564 395.413C369.564 395.413 364.564 418.413 353.564 431.913C342.564 445.413 315.064 445.413 315.064 445.413H287.064C261.564 445.413 244.064 442.913 236.064 412.413Z" fill="black"/>
<path d="M466.064 354.913C440.564 357.333 414.7 360.913 410.564 373.913C407.064 384.913 415.064 417.413 433.064 430.413C441.569 436.556 453.088 435.413 469.564 435.413C504.564 435.413 517.064 429.413 524.064 419.913C531.064 410.413 539.064 373.413 529.564 363.413C520.064 353.413 488.754 352.76 466.064 354.913Z" fill="#E2E4F0"/>
<path d="M298.564 359.413C259.064 360.246 248.522 364.879 242.064 372.413C236.064 379.413 238.403 419.983 259.064 433.913C267.221 439.413 287.564 439.413 303.064 439.413C318.564 439.413 332.22 439.413 343.064 431.913C363.03 418.104 365.564 382.413 361.064 372.413C356.564 362.413 323.489 358.888 298.564 359.413Z" fill="#E2E4F0"/>
</svg>
